<svg width="1094" height="319" viewBox="0 0 1094 319" fill="none" xmlns="http://www.w3.org/2000/svg">
<g clip-path="url(#clip0_1_3)">
<path d="M339.9 308.3C336.8 308.3 333.8 307.7 331.1 306.6C328.4 305.5 326 303.9 324 301.9C322 299.9 320.4 297.6 319.2 294.9C318.1 292.2 317.5 289.3 317.5 286.2C317.5 282.7 318.2 279.3 319.5 276.2C320.9 273.1 322.7 270.3 325.1 268C327.4 265.6 330.2 263.7 333.3 262.4C336.4 261.1 339.7 260.4 343.2 260.4C347.3 260.4 350.9 261.2 354.1 262.7C357.3 264.3 359.9 266.5 361.9 269.4L355.7 274.7C354.3 272.5 352.5 270.8 350.2 269.6C348 268.4 345.5 267.8 342.7 267.8C340.3 267.8 338.1 268.3 336 269.2C334 270.1 332.2 271.4 330.6 273.1C329 274.8 327.8 276.7 326.9 278.8C326 281 325.6 283.3 325.6 285.8C325.6 288.6 326.3 291.2 327.6 293.4C328.9 295.7 330.7 297.4 332.9 298.7C335.1 300 337.7 300.6 340.6 300.6C343 300.6 345.4 300.1 347.7 299.1C350 298.1 352.1 296.7 354 294.9L358.4 300.5C355.9 302.9 353 304.8 349.8 306.1C346.6 307.4 343.3 308.3 339.9 308.3Z" fill="white"/>
<path d="M385.7 307.5L414.2 260.9H423.6L432.5 307.5H424.2L421.9 294.5H402.2L394.5 307.5H385.7ZM406.2 287.9H420.8L417.4 269.1L406.2 287.9Z" fill="white"/>
<path d="M482.5 308.2C478.4 308.2 474.5 307.4 471 305.7C467.5 304 464.4 301.7 461.9 298.5L467.4 293C469.7 295.8 472.2 297.8 474.8 299.2C477.4 300.6 480.2 301.3 483.2 301.3C485.2 301.3 486.9 301 488.5 300.4C490 299.8 491.2 299 492 297.9C492.8 296.8 493.2 295.6 493.2 294.2C493.2 292.6 492.6 291.4 491.5 290.4C490.3 289.4 488.4 288.6 485.7 288L477.7 285.9C474.2 284.9 471.6 283.5 469.8 281.5C468 279.6 467.1 277.1 467.1 274.2C467.1 271.3 467.8 268.8 469.2 266.7C470.6 264.6 472.6 263 475.2 261.9C477.8 260.8 480.9 260.2 484.4 260.2C488 260.2 491.5 260.9 494.9 262.2C498.3 263.6 501.3 265.4 503.9 267.9L498.8 273.8C496.5 271.6 494.1 269.9 491.6 268.8C489.1 267.7 486.5 267.1 483.7 267.1C481 267.1 478.8 267.7 477.2 268.8C475.6 269.9 474.8 271.4 474.8 273.3C474.8 274.8 475.3 275.9 476.4 276.8C477.5 277.7 479.1 278.4 481.5 279.1L489.2 281C493.3 282 496.3 283.5 498.3 285.5C500.3 287.5 501.3 290 501.3 293C501.3 296.1 500.5 298.7 499 301C497.5 303.3 495.3 305 492.5 306.3C489.5 307.6 486.2 308.2 482.5 308.2Z" fill="white"/>
<path d="M530.4 307.5L540.3 260.9H548.3L544.2 280.3H567L571 261H579.1L569.2 307.6H561.1L565.4 287.9H542.6L538.4 307.6H530.4V307.5Z" fill="white"/>
<path d="M604.7 307.5L614.6 260.9H633.8C638 260.9 641.3 261.9 643.7 263.8C646.1 265.8 647.4 268.4 647.4 271.8C647.4 274.4 646.7 276.8 645.2 278.9C643.7 281 641.8 282.6 639.3 283.8C641.2 284.7 642.6 285.9 643.6 287.4C644.6 288.9 645.1 290.7 645.1 292.7C645.1 295.5 644.3 298.1 642.8 300.3C641.3 302.5 639.2 304.3 636.6 305.6C634 306.9 631 307.5 627.6 307.5H604.7ZM614.1 300.7H627.7C629.5 300.7 631.1 300.4 632.5 299.7C633.9 299 635 298.1 635.8 296.9C636.6 295.7 637 294.3 637 292.8C637 291 636.3 289.6 635 288.5C633.7 287.5 631.9 286.9 629.5 286.9H617L614.1 300.7ZM618.4 280.4H630.6C633.1 280.4 635.2 279.7 636.8 278.4C638.4 277 639.2 275.3 639.2 273.2C639.2 271.5 638.6 270.2 637.4 269.2C636.2 268.2 634.6 267.8 632.5 267.8H621.2L618.4 280.4Z" fill="white"/>
<path d="M670.5 307.5L699 261H708.4L717.3 307.6H709L706.7 294.6H687L679.3 307.6H670.5V307.5ZM690.9 287.9H705.5L702.1 269.1L690.9 287.9Z" fill="white"/>
<path d="M769.6 308.3C766.5 308.3 763.5 307.7 760.8 306.6C758.1 305.5 755.7 303.9 753.7 301.9C751.7 299.9 750.1 297.6 748.9 294.9C747.8 292.2 747.2 289.3 747.2 286.2C747.2 282.7 747.9 279.3 749.2 276.2C750.6 273.1 752.4 270.3 754.8 268C757.1 265.6 759.9 263.7 763 262.4C766.1 261.1 769.4 260.4 772.9 260.4C777 260.4 780.6 261.2 783.8 262.7C787 264.3 789.6 266.5 791.6 269.4L785.4 274.7C784 272.5 782.2 270.8 779.9 269.6C777.7 268.4 775.2 267.8 772.4 267.8C770 267.8 767.8 268.3 765.7 269.2C763.7 270.1 761.9 271.4 760.3 273.1C758.7 274.8 757.5 276.7 756.6 278.8C755.7 281 755.3 283.3 755.3 285.8C755.3 288.6 756 291.2 757.3 293.4C758.6 295.7 760.4 297.4 762.6 298.7C764.8 300 767.4 300.6 770.3 300.6C772.7 300.6 775.1 300.1 777.4 299.1C779.7 298.1 781.8 296.7 783.7 294.9L788.1 300.5C785.6 302.9 782.7 304.8 779.5 306.1C776.3 307.6 772.9 308.3 769.6 308.3Z" fill="white"/>
<path d="M817.9 307.5L827.8 260.9H835.8L831.4 281.5L856.5 260.9H867.1L839 283.5L857.5 307.5H847.3L830.6 285.1L825.8 307.5H817.9Z" fill="white"/>
<path d="M853.8 215.3C843.6 215.3 834.5 213.4 826.6 209.7C818.7 206 812.6 200.8 808.2 194.2C803.8 187.6 801.6 180 801.6 171.4C801.6 157.7 806.8 147 817.1 139.4C827.4 131.8 841.7 128 859.8 128C872.2 128 883.9 129.9 894.9 133.8V123.4C894.9 115.2 892.3 109 887.2 104.9C882.1 100.8 874.6 98.7 864.7 98.7C858.7 98.7 852.2 99.6 845.2 101.4C845.1 101.4 845.1 101.4 845 101.5C830.5 105.3 815.3 98.6 808.7 85.2L807.4 82.5C818.7 77.2 829.6 73.3 839.9 70.8C850.2 68.3 860.6 67.1 871 67.1C890.4 67.1 905.4 71.7 916 81C926.6 90.2 931.9 103.3 931.9 120.1V212.8H894.9V202.6C889 207 882.7 210.2 876 212.2C869.3 214.3 861.8 215.3 853.8 215.3ZM837.3 170.6C837.3 176.1 839.7 180.4 844.4 183.6C849.2 186.8 855.6 188.4 863.6 188.4C869.6 188.4 875.3 187.6 880.6 186.1C885.9 184.5 890.7 182.1 894.9 178.8V158.2C890.3 156.4 885.6 155 880.6 154.1C875.7 153.2 870.4 152.7 864.7 152.7C856.1 152.7 849.4 154.3 844.5 157.5C839.8 160.8 837.3 165.1 837.3 170.6Z" fill="white"/>
<path d="M789.2 49.8C783.6 40.7 776 33.7 766.4 28.5C756.8 23.4 745.7 20.8 733.1 20.8H645.7V0L603.5 37.6L645.7 75.2V55.2H728.7C737.3 55.2 744.2 57.6 749.4 62.5C754.6 67.3 757.2 73.7 757.2 81.6C757.2 89.5 754.6 95.8 749.4 100.5C744.2 105.3 737.3 107.6 728.7 107.6H668.8C651.1 107.6 636.8 121.9 636.8 139.6V212.9C658.9 212.9 676.9 195 676.9 172.8V149.6C676.9 144.7 680.9 140.7 685.8 140.7H733.2C745.6 140.7 756.7 138.1 766.4 133C776.1 127.9 783.7 120.8 789.3 111.7C794.9 102.6 797.7 92.5 797.7 81.1C797.6 69.3 794.8 58.8 789.2 49.8Z" fill="white"/>
<path d="M1053 69.9L1012.7 167.3L989.3 102.8C982.1 83 963.3 69.9 942.3 69.9H935.6L991.3 214.2L975.3 246.2C970 259.2 960.5 264.3 946.8 264.3C945.5 264.3 944 264.3 942.4 264.3V243.5L900.2 281.1L942.4 318.7V298.4C945.8 298.4 949.2 298.4 950.6 298.4C961 298.4 970 296.8 977.6 293.7C985.2 290.6 991.9 285.5 997.8 278.5C1003.7 271.5 1009 262.2 1014 250.7L1094 70H1053V69.9Z" fill="white"/>
<path d="M457.7 141.2C457.7 180.1 488.3 212 527.2 215.3V186.5C520.3 185.9 513.7 184.4 507.6 181.8C501.4 179.3 496 175.9 491.4 171.7L502.5 155.6C509.8 162.2 518 166.2 527.2 167.8V150L518.6 148.3C509.6 146.7 503.2 144 499.2 140C495.3 136 493.3 130.3 493.3 122.8C493.3 117 494.6 111.9 497.3 107.7C500 103.5 503.9 100.1 509 97.8C514.1 95.4 520.1 94.1 527.2 93.8V67.1C488.3 70.4 457.7 102.3 457.7 141.2Z" fill="white"/>
<path d="M514.2 121.1C514.2 123 514.6 124.6 515.3 125.9C516 127.2 517.2 128.1 518.8 128.7C520.4 129.4 522.6 129.8 525.4 130.1L527.2 130.2V112.3C523.2 112.5 520.1 113.3 517.7 114.9C515.4 116.5 514.2 118.5 514.2 121.1Z" fill="white"/>
<path d="M162.4 194.5L120.2 157V177.5H83.4C59.5 177.5 40.1 158.1 40.1 134.2V60.9C40.1 38.8 22.2 20.8 0 20.8V129.5C0 175.5 37.3 212.9 83.4 212.9H120.3V232.2L162.4 194.5Z" fill="white"/>
<path d="M236.9 215.6C222.6 215.6 209.7 212.3 198.1 205.7C186.5 199.1 177.3 190.2 170.5 179.1C163.7 167.9 160.3 155.4 160.3 141.5C160.3 127.6 163.5 115.1 170 103.9C176.5 92.7 185.3 83.9 196.5 77.3C207.7 70.7 220.1 67.4 233.8 67.4C247.5 67.4 259.7 70.7 270.3 77.4C280.9 84.1 289.3 93.2 295.4 104.8C301.5 116.4 304.6 129.5 304.6 144.2V154.1H198.7C200.3 159.8 203 164.9 206.8 169.5C210.5 174.1 215.2 177.6 220.8 180.1C226.4 182.6 232.4 183.8 238.8 183.8C245.2 183.8 251.1 182.8 256.5 180.9C256.6 180.9 256.6 180.9 256.7 180.8C266.7 177.2 277.8 179.2 285.6 186.3L295.1 195C286.3 202.1 277.3 207.3 268.1 210.6C258.8 214 248.4 215.6 236.9 215.6ZM198.2 127.3H267.6C266.3 121.6 264 116.6 260.6 112.3C257.2 108 253.2 104.6 248.5 102.1C243.8 99.6 238.7 98.4 233 98.4C227.3 98.4 222.1 99.6 217.4 102C212.6 104.4 208.6 107.7 205.3 112C202 116.3 199.6 121.4 198.2 127.3Z" fill="white"/>
<path d="M364.7 215.3C354.5 215.3 345.4 213.4 337.5 209.7C329.6 206 323.5 200.8 319.1 194.2C314.7 187.6 312.5 180 312.5 171.4C312.5 157.7 317.7 147 328 139.4C338.3 131.8 352.6 128 370.7 128C383.1 128 394.8 129.9 405.8 133.8V123.4C405.8 115.2 403.2 109 398.1 104.9C393 100.8 385.5 98.7 375.6 98.7C369.6 98.7 363.1 99.6 356.1 101.4C356 101.4 356 101.4 355.9 101.5C341.4 105.3 326.2 98.6 319.6 85.2L318.3 82.5C329.6 77.2 340.5 73.3 350.8 70.8C361.1 68.3 371.5 67.1 381.9 67.1C401.3 67.1 416.3 71.7 426.9 81C437.5 90.2 442.8 103.3 442.8 120.1V212.8H405.8V202.6C399.9 207 393.6 210.2 386.9 212.2C380.1 214.3 372.7 215.3 364.7 215.3ZM354.3 55C341.5 52.3 337.9 35.3 348.8 28.1C352.2 25.8 356.2 24.7 360.8 24.7C364.9 24.7 368.8 25.6 372.7 27.4C376.5 29.2 380.2 31 383.7 32.8C387.2 34.6 390.2 35.5 392.9 35.5C395.4 35.5 397.3 34.6 398.8 32.9C400.3 31.2 401.5 28.1 402.5 23.7L404.1 24C414.8 26.3 419.2 39.5 411.7 47.5L411.6 47.6C407.5 52 402.2 54.1 395.8 54.1C391.9 54.1 388 53.2 384.1 51.4C380.2 49.6 376.6 47.8 373.1 46C369.6 44.2 366.4 43.3 363.5 43.3C361.2 43.3 359.3 44.2 357.8 45.9C356.4 47.9 355.2 50.8 354.3 55ZM348.2 170.6C348.2 176.1 350.6 180.4 355.3 183.6C360.1 186.8 366.5 188.4 374.5 188.4C380.5 188.4 386.2 187.6 391.5 186.1C396.8 184.5 401.6 182.1 405.8 178.8V158.2C401.2 156.4 396.5 155 391.5 154.1C386.6 153.2 381.3 152.7 375.6 152.7C367 152.7 360.3 154.3 355.4 157.5C350.6 160.8 348.2 165.1 348.2 170.6Z" fill="white"/>
<path d="M537.4 66.9V94.3C543.1 94.8 548.8 96 554.5 97.8C560.2 99.6 565.5 102 570.4 104.9L561.2 122.1C556.8 119.7 552.7 117.7 548.8 116.3C544.9 114.8 541.1 113.8 537.4 113.1V131.1L545.9 132.5C555.4 134.2 562.4 137 566.8 140.9C571.2 144.8 573.4 150.3 573.4 157.2C573.4 162.9 572 167.9 569.1 172.2C566.2 176.5 562.1 179.8 556.8 182.3C551.5 184.7 545 186.2 537.4 186.5V215.4C577.9 213.7 610.2 181.1 610.2 141.1C610.2 101.2 577.9 68.6 537.4 66.9Z" fill="white"/>
<path d="M551.7 159.6C551.7 157.8 551.4 156.3 550.7 155.2C550 154.1 548.8 153.3 547 152.7C545.2 152.1 542.6 151.6 539.3 151.1L537.3 150.8V168.6C541.7 168.3 545.1 167.4 547.7 165.8C550.4 164.2 551.7 162.1 551.7 159.6Z" fill="white"/>
</g>
<defs>
<clipPath id="clip0_1_3">
<rect width="1093.8" height="318.6" fill="white"/>
</clipPath>
</defs>
</svg>
