<svg xmlns="http://www.w3.org/2000/svg" id="Layer_1" data-name="Layer 1" viewBox="0 0 130 130"><defs><style>.cls-1,.cls-3{fill:#007dc5;fill-rule:evenodd}.cls-3{fill:#ffcb05}</style></defs><path d="m10.84 65.87.05 62.18h24.44l.05-52.31c-4.59-2.9-12.91-7-24.54-9.87M119.16 65.87v62.18H94.67V75.74c4.59-2.9 12.91-7 24.54-9.87" class="cls-1"/><path d="m63.34 93.11.07-36C54.71 46.09 29.2 29.52 11 25.48V63c19.43 4.1 38.53 16.13 52.38 30.12" style="fill:#44c8f5;fill-rule:evenodd"/><path d="m66.68 93.11-.07-36c8.69-11 34.2-27.54 52.44-31.58V63c-19.43 4.1-38.52 16.13-52.37 30.12" class="cls-1"/><path d="M64.51 54.2v-2.32c-9.41-13.75-28.19-29.34-46.6-39.11v11.07c16.38 5.58 34.37 18.7 46.63 30.36M65.49 54.2v-2.32c9.41-13.75 28.19-29.34 46.6-39.11v11.07c-16.35 5.58-34.34 18.7-46.6 30.36" class="cls-3"/><path d="M64.51 49.35v-1.23C56.37 31 48.7 19.57 30.34 8.4l-.08 8.31c14.69 9.73 25 18.41 34.25 32.66M65.49 49.35v-1.23C73.63 31 81.3 19.57 99.66 8.4l.08 8.31c-14.69 9.73-25 18.41-34.25 32.66" class="cls-3"/><path d="m64.48 44.66-.08-.45C62.62 30.64 55.87 15.3 42.34 5.07v7.6c9.2 7.52 17.45 20.22 22.09 32M65.54 44.66l.08-.45C67.4 30.64 74.15 15.3 87.68 5.07v7.6c-9.2 7.52-17.46 20.22-22.1 32" class="cls-3"/><path d="m64.53 37.71-.35-6.36C62.92 20.56 62.54 14.45 53.89 2v8.46c5.55 7.17 8.43 15 10.64 27.3M65.49 37.71l.35-6.36C67.09 20.56 67.48 14.45 76.12 2v8.46c-5.54 7.17-8.42 15-10.63 27.3" class="cls-3"/></svg>