<svg width="623" height="547" viewBox="0 0 623 547" fill="none" xmlns="http://www.w3.org/2000/svg">
<g clip-path="url(#clip0_1_28)">
<path d="M417.6 94C407.1 76.9 392.7 63.5 374.6 53.9C356.5 44.2 335.5 39.4 311.7 39.4H146.7V0L66.9 71L146.6 142V104.2H303.3C319.5 104.2 332.6 108.8 342.4 117.9C352.2 127.1 357.2 139.1 357.2 153.9C357.2 168.8 352.3 180.7 342.4 189.6C332.6 198.6 319.5 203.1 303.3 203.1H129.8V402.1C171.6 402.1 205.4 368.2 205.4 326.5V265.9H311.6C335.1 265.9 356 261.1 374.3 251.4C392.6 241.7 407 228.3 417.6 211.2C428.1 194.1 433.4 174.9 433.4 153.4C433.4 130.9 428.1 111.1 417.6 94Z" fill="#1EC678"/>
<path d="M221.4 443H75.6V222.8C75.6 181 41.7 147.2 0 147.2V470C0 492 17.8 509.8 39.8 509.8H221.3V546.2L301 475.2L221.3 404.2V443H221.4Z" fill="#004A42"/>
<path d="M484.7 264.4V316.2C495.5 317.2 506.3 319.5 517.1 322.9C527.9 326.3 537.9 330.8 547.1 336.4L529.8 368.9C521.6 364.4 513.8 360.7 506.3 357.9C498.9 355.1 491.7 353.1 484.7 351.9V386L500.7 388.6C518.7 391.7 531.8 397 540.1 404.5C548.4 411.9 552.5 422.2 552.5 435.3C552.5 446.1 549.8 455.6 544.4 463.6C539 471.6 531.3 478 521.2 482.6C511.2 487.2 499 489.9 484.6 490.6V545.2C561.1 541.9 622.1 480.3 622.1 404.9C622.3 329.2 561.3 267.7 484.7 264.4Z" fill="#004A42"/>
<path d="M511.7 439.4C511.7 435.9 511.1 433.2 509.9 431.1C508.7 429.1 506.4 427.5 502.9 426.4C499.5 425.3 494.6 424.3 488.4 423.4L484.7 422.9V456.4C492.9 455.9 499.5 454.1 504.4 451.2C509.3 448.2 511.7 444.3 511.7 439.4Z" fill="#004A42"/>
<path d="M332.6 404.7C332.6 478.1 390.3 538.4 463.9 544.6V490.2C450.8 489.1 438.4 486.2 426.8 481.4C415.2 476.6 405 470.3 396.3 462.4L417.3 432C431.1 444.4 446.6 452.1 463.9 455.1V421.5L447.7 418.4C430.7 415.4 418.6 410.2 411.1 402.7C403.7 395.2 400 384.4 400 370.2C400 359.2 402.5 349.7 407.6 341.6C412.7 333.6 420 327.3 429.6 322.9C439.2 318.5 450.7 316 463.9 315.4V264.8C390.4 271 332.6 331.3 332.6 404.7Z" fill="#1EC678"/>
<path d="M439.3 366.8C439.3 370.5 440 373.5 441.4 375.8C442.8 378.2 445 380 448.1 381.2C451.1 382.4 455.3 383.3 460.5 383.8L463.9 384.1V350.3C456.4 350.7 450.4 352.3 446 355.2C441.6 358 439.3 361.9 439.3 366.8Z" fill="#1EC678"/>
</g>
<defs>
<clipPath id="clip0_1_28">
<rect width="622.3" height="546.2" fill="white"/>
</clipPath>
</defs>
</svg>
